# xmcd CD database file
#
# Track frame offsets:
#	150
#	14748
#	28072
#	41432
#	53086
#	67514
#	81531
#	94417
#	106529
#	120642
#	134768
#	149230
#	161702
#	174884
#	186597
#	197583
#	209295
#	224679
#	238159
#	251785
#
# Disc length: 3500 seconds
#
# Revision: 2
# Processed by: cddbd v1.4PL0 Copyright (c) Steve Scherf et al.
# Submitted via: CDex 1.50beta9
#
DISCID=340daa14
DTITLE=Cab Calloway - Masters of Jazz - Cab Calloway [CD1)
DYEAR=1999
DGENRE=Jazz
TTITLE0=Minnie The Moocher
TTITLE1=Is That Religion?
TTITLE2=Basin Street Blues
TTITLE3=Bugle Call Rag
TTITLE4=Kicking the Gong Around
TTITLE5=Minnie The Moocher's Wedding Day
TTITLE6=Old Yazoo
TTITLE7=Hot Toddy
TTITLE8=The Man From Harlem
TTITLE9=Harlem Camp Meeting
TTITLE10=The Scat Song
TTITLE11=Chinese Rythm
TTITLE12=Nagasaki
TTITLE13=Manhattan Jam
TTITLE14=A Minor Breakdown
TTITLE15=I Like Music
TTITLE16=Penguin Swing
TTITLE17=Jive
TTITLE18=The Congo Conga
TTITLE19=Miss Hallelujah Brown
EXTD=YEAR: 1999
EXTT0=3 mars 1931\nSolistes: Cab Calloway and ens. (voc]\n
EXTT1=
EXTT2=
EXTT3=
EXTT4=
EXTT5=
EXTT6=
EXTT7=
EXTT8=
EXTT9=
EXTT10=
EXTT11=
EXTT12=
EXTT13=
EXTT14=
EXTT15=
EXTT16=
EXTT17=
EXTT18=
EXTT19=
PLAYORDER=
